<?xml version="1.0" standalone="no"?>
<!DOCTYPE svg PUBLIC "-//W3C//DTD SVG 20010904//EN"
 "http://www.w3.org/TR/2001/REC-SVG-20010904/DTD/svg10.dtd">
<svg version="1.0" xmlns="http://www.w3.org/2000/svg"
 width="1691.000000pt" height="1691.000000pt" viewBox="0 0 1691.000000 1691.000000"
 preserveAspectRatio="xMidYMid meet">
<metadata>
Created by potrace 1.11, written by Peter Selinger 2001-2013
</metadata>
<g transform="translate(0.000000,1691.000000) scale(0.100000,-0.100000)"
fill="#000000" stroke="none">
<path d="M6365 14662 c-6 -5 -37 -15 -69 -22 -33 -7 -98 -25 -145 -40 -813
-265 -1631 -1109 -2478 -2554 -51 -87 -93 -160 -93 -162 0 -3 -10 -21 -23 -42
-13 -20 -48 -82 -77 -137 -29 -55 -56 -104 -60 -110 -41 -58 -452 -878 -545
-1090 -13 -27 -39 -86 -60 -130 -20 -44 -57 -125 -82 -180 -25 -55 -58 -128
-74 -163 -16 -35 -29 -65 -29 -67 0 -3 -13 -33 -29 -67 -15 -35 -56 -130 -91
-213 -34 -82 -71 -170 -82 -195 -98 -215 -492 -1230 -664 -1713 -13 -37 -36
-100 -50 -140 -14 -39 -41 -112 -59 -162 -80 -217 -352 -1027 -465 -1385 -29
-91 -63 -196 -75 -235 -28 -84 -121 -382 -128 -410 -3 -11 -17 -58 -32 -105
-15 -47 -31 -98 -35 -115 -4 -16 -20 -68 -35 -115 -15 -47 -33 -105 -40 -130
-19 -62 -85 -288 -95 -325 -42 -147 -151 -526 -158 -550 -6 -16 -22 -75 -37
-130 -14 -55 -30 -111 -35 -125 -15 -45 -99 -356 -170 -625 -10 -38 -27 -104
-38 -145 -12 -41 -44 -165 -72 -275 -28 -110 -65 -252 -82 -315 -16 -63 -34
-131 -38 -150 -5 -19 -19 -78 -33 -130 -38 -146 -42 -180 -23 -180 20 0 52 70
95 210 46 148 210 620 276 795 15 39 38 102 52 140 35 100 182 485 266 700
206 526 530 1293 715 1695 35 76 142 308 182 395 101 219 416 855 528 1065
115 217 257 479 320 590 36 63 76 135 90 160 68 121 205 350 360 600 779 1257
1635 2206 2412 2672 336 202 557 289 966 378 23 5 111 15 197 21 158 13 405 3
510 -20 23 -5 69 -15 102 -22 180 -36 468 -140 625 -226 221 -121 318 -184
500 -321 335 -255 670 -590 996 -997 235 -293 489 -652 685 -970 31 -49 85
-137 121 -195 68 -110 201 -341 305 -530 177 -321 445 -848 437 -861 -3 -5
-10 -9 -15 -9 -13 0 -777 -346 -1108 -501 -57 -27 -105 -49 -107 -49 -1 0 -87
-40 -191 -89 -216 -101 -298 -140 -403 -188 -71 -33 -485 -229 -705 -333 -186
-89 -539 -257 -700 -335 -88 -43 -279 -135 -425 -205 -377 -182 -590 -285
-1385 -675 -444 -218 -2715 -1351 -3230 -1613 -280 -142 -730 -370 -1000 -506
-647 -328 -1004 -510 -1090 -556 -224 -119 -263 -141 -279 -159 -17 -19 -17
-19 6 -14 52 12 94 32 923 438 276 135 774 377 950 460 50 24 144 69 210 100
66 32 161 77 210 100 50 24 140 66 200 95 61 29 146 69 190 90 44 21 177 84
295 140 709 337 2234 1043 3020 1397 140 63 280 126 310 140 30 14 111 50 180
80 69 31 148 66 175 78 28 13 93 42 145 65 52 23 113 50 135 60 22 10 274 120
560 244 286 125 549 240 585 255 314 139 1231 518 1805 747 402 160 889 349
919 357 8 2 59 -101 137 -278 199 -449 322 -741 485 -1155 57 -146 113 -290
125 -320 11 -30 25 -64 29 -75 24 -55 247 -670 320 -880 69 -198 193 -567 259
-775 35 -107 69 -213 76 -235 8 -22 30 -94 50 -160 20 -66 40 -131 45 -145 9
-25 151 -511 169 -580 56 -212 83 -290 101 -290 18 0 138 138 302 350 101 129
256 327 344 440 1509 1928 2648 3603 3126 4597 161 335 278 650 320 863 13 63
26 117 31 118 9 5 9 282 -1 282 -4 0 -13 24 -20 53 -43 183 -196 327 -407 382
-207 55 -555 39 -970 -44 -401 -80 -1080 -286 -1685 -511 -47 -17 -122 -45
-167 -61 -126 -45 -640 -246 -918 -359 -359 -146 -1213 -509 -1297 -551 -43
-22 -58 -24 -58 -6 0 21 -245 768 -365 1112 -37 105 -71 201 -75 215 -5 14
-25 70 -45 125 -20 55 -40 111 -45 125 -7 25 -49 137 -157 420 -111 294 -328
831 -388 965 -13 28 -35 79 -50 115 -80 193 -310 687 -460 985 -153 304 -376
715 -426 787 -11 14 -19 29 -19 32 0 7 -108 181 -223 361 -159 248 -385 553
-578 781 -132 157 -424 444 -564 555 -311 249 -577 389 -915 482 -67 19 -107
22 -385 24 -171 2 -315 0 -320 -5z m8400 -6857 c230 -44 394 -134 488 -267
107 -153 147 -340 127 -591 -10 -117 -14 -148 -46 -299 -50 -238 -192 -643
-337 -958 -19 -41 -49 -106 -67 -145 -104 -226 -316 -630 -520 -990 -319 -563
-945 -1535 -1404 -2180 -98 -137 -183 -260 -189 -273 -16 -34 -32 -21 -35 29
-1 24 -6 62 -12 84 -34 143 -60 261 -75 330 -61 295 -80 380 -120 550 -8 33
-30 134 -50 225 -36 165 -68 304 -105 455 -11 44 -31 127 -44 185 -50 210 -98
408 -133 545 -19 77 -39 156 -43 175 -9 41 -109 430 -138 540 -11 41 -33 120
-47 175 -15 55 -31 114 -35 130 -5 17 -16 57 -25 90 -9 33 -27 103 -41 155
-24 90 -98 356 -150 540 -14 47 -32 110 -40 140 -25 88 -76 261 -122 415 -64
211 -73 248 -65 255 4 4 44 20 88 35 258 88 561 190 705 235 91 29 183 58 205
65 101 33 518 149 685 190 384 95 765 161 1030 179 117 8 437 -4 515 -19z"/>
</g>
</svg>
